<?xml version="1.0" encoding="UTF-8" standalone="no"?>
<!-- Created with Inkscape (http://www.inkscape.org/) -->

<svg
   xmlns:dc="http://purl.org/dc/elements/1.1/"
   xmlns:cc="http://creativecommons.org/ns#"
   xmlns:rdf="http://www.w3.org/1999/02/22-rdf-syntax-ns#"
   xmlns:svg="http://www.w3.org/2000/svg"
   xmlns="http://www.w3.org/2000/svg"
   xmlns:sodipodi="http://sodipodi.sourceforge.net/DTD/sodipodi-0.dtd"
   xmlns:inkscape="http://www.inkscape.org/namespaces/inkscape"
   width="297mm"
   height="210mm"
   viewBox="0 0 297 210"
   version="1.1"
   id="svg1039"
   inkscape:version="0.92.3 (2405546, 2018-03-11)"
   sodipodi:docname="2-info-stato.svg">
  <defs
     id="defs1033">
    <marker
       inkscape:stockid="Arrow1Lend"
       orient="auto"
       refY="0.0"
       refX="0.0"
       id="Arrow1Lend"
       style="overflow:visible;"
       inkscape:isstock="true">
      <path
         id="path856"
         d="M 0.0,0.0 L 5.0,-5.0 L -12.5,0.0 L 5.0,5.0 L 0.0,0.0 z "
         style="fill-rule:evenodd;stroke:#000000;stroke-width:1pt;stroke-opacity:1;fill:#000000;fill-opacity:1"
         transform="scale(0.8) rotate(180) translate(12.5,0)" />
    </marker>
  </defs>
  <sodipodi:namedview
     id="base"
     pagecolor="#ffffff"
     bordercolor="#666666"
     borderopacity="1.0"
     inkscape:pageopacity="0.0"
     inkscape:pageshadow="2"
     inkscape:zoom="1.4"
     inkscape:cx="950.29288"
     inkscape:cy="572.88968"
     inkscape:document-units="mm"
     inkscape:current-layer="layer1"
     showgrid="false"
     inkscape:window-width="1920"
     inkscape:window-height="1001"
     inkscape:window-x="-9"
     inkscape:window-y="41"
     inkscape:window-maximized="1" />
  <metadata
     id="metadata1036">
    <rdf:RDF>
      <cc:Work
         rdf:about="">
        <dc:format>image/svg+xml</dc:format>
        <dc:type
           rdf:resource="http://purl.org/dc/dcmitype/StillImage" />
        <dc:title />
      </cc:Work>
    </rdf:RDF>
  </metadata>
  <g
     inkscape:label="Layer 1"
     inkscape:groupmode="layer"
     id="layer1"
     transform="translate(0,-87)">
    <path
       sodipodi:type="star"
       style="fill:none;fill-opacity:1;stroke:#000000;stroke-width:0.10583334;stroke-miterlimit:4;stroke-dasharray:none"
       id="path7"
       sodipodi:sides="3"
       sodipodi:cx="61.610119"
       sodipodi:cy="146.56548"
       sodipodi:r1="29.302298"
       sodipodi:r2="16.038399"
       sodipodi:arg1="0.52714594"
       sodipodi:arg2="1.5743435"
       inkscape:flatsided="true"
       inkscape:rounded="0"
       inkscape:randomized="0"
       d="M 86.934523,161.30655 36.181774,161.12652 61.714059,117.26336 Z"
       inkscape:transform-center-x="-2.315943"
       inkscape:transform-center-y="-5.7880044"
       transform="matrix(0.9684846,0,0,0.98794475,1.1382155,1.4115284)" />
    <path
       style="fill:none;stroke:#000000;stroke-width:0.26458332px;stroke-linecap:butt;stroke-linejoin:miter;stroke-opacity:1"
       d="m 102.76513,158.01984 c 0.0321,0.40741 -0.10558,0.9536 0.13364,1.33635 0.39414,0.63062 0.88953,0.99837 1.46998,1.46999 2.60475,2.11636 2.21851,1.54195 7.48355,3.07359 0.34217,0.0996 0.71467,0.0373 1.06907,0 0.4953,-0.0521 0.99398,-0.1208 1.46999,-0.26726 0.12042,-0.0371 0.22742,-0.14775 0.26727,-0.26728 0.0563,-0.16903 0,-0.35636 0,-0.53453 0,-0.17818 0,-0.35636 0,-0.53454 0,-0.0445 0.0199,-0.0938 0,-0.13364 -0.0718,-0.14365 -0.19545,-0.25725 -0.26727,-0.4009 -0.063,-0.12599 -0.0706,-0.27491 -0.13364,-0.40091 -0.0718,-0.14365 -0.17818,-0.26727 -0.26727,-0.4009 -0.0891,-0.13363 -0.16445,-0.27752 -0.26727,-0.40091 -0.35176,-0.42211 -1.10795,-0.97992 -1.46998,-1.20271 -0.2043,-0.12572 -0.44979,-0.168 -0.66817,-0.26727 -0.27204,-0.12365 -0.51833,-0.30641 -0.80181,-0.4009 -0.6206,-0.20687 -1.55111,-0.13364 -2.13816,-0.13364 -0.31181,0 -0.62363,0 -0.93544,0 -0.0891,0 -0.18084,-0.0216 -0.26727,0 -0.32843,0.0821 -0.61228,0.47865 -0.80181,0.66818 -0.22272,0.22272 -0.42902,0.46319 -0.66817,0.66817 -0.16911,0.14495 -0.38257,0.23808 -0.53454,0.40091 -0.99419,1.06519 -1.56911,1.59477 -1.73725,2.93996 -0.0166,0.1326 0,0.26727 0,0.40091 0,0.17817 -0.0512,0.36387 0,0.53453 0.1114,0.37137 0.33542,0.81952 0.66817,1.06908 0.4058,0.30435 0.98825,0.26727 1.46998,0.26727 0.44545,0 0.8909,0 1.33635,0 0.98053,0 1.62236,0.0239 2.6727,-0.13363 0.57608,-0.0864 1.84845,-0.60939 2.27178,-0.80181 0.54407,-0.2473 1.0763,-0.52057 1.60362,-0.80181 0.14172,-0.0756 0.28734,-0.1537 0.40091,-0.26727 0.0127,-0.0127 0.50162,-0.60433 0.53454,-0.80181 0.0293,-0.17575 0,-0.35636 0,-0.53454 0,-0.31181 0,-0.62363 0,-0.93544 0,-0.0891 0.0147,-0.17939 0,-0.26727 -0.11686,-0.7011 -0.11065,-0.51155 -0.66818,-1.06908 -0.17818,-0.17818 -0.33295,-0.38335 -0.53454,-0.53454 -0.51395,-0.38546 -1.0407,-0.75947 -1.60361,-1.06907 -1.06267,-0.58447 -1.0979,-0.31444 -2.2718,-0.53455 -0.31873,-0.0598 -0.61492,-0.21795 -0.93544,-0.26726 -0.26416,-0.0406 -0.53484,-0.0127 -0.80181,0 -0.6689,0.0318 -1.34227,0.0343 -2.00452,0.13363 -0.73708,0.11056 -1.12454,0.68678 -1.60362,1.20271 -0.27945,0.30095 -0.58132,0.58897 -0.8018,0.93545 -0.31642,0.49723 -0.0555,0.4109 -0.13364,0.8018 -0.0276,0.13813 -0.11048,0.26196 -0.13363,0.40091 -0.022,0.13182 0,0.26727 0,0.4009 0,0.17818 0,0.35636 0,0.53454 0,0.13364 -0.0496,0.27683 0,0.40091 0.13337,0.33344 0.34976,0.62749 0.53454,0.93544 0.0826,0.13772 0.14185,0.30057 0.26726,0.40091 0.11,0.088 0.2837,0.0555 0.40091,0.13363 0.15725,0.10483 0.24366,0.29607 0.4009,0.4009 0.1791,0.1194 0.96788,0.24479 1.06908,0.26727 0.17929,0.0399 0.35229,0.11086 0.53454,0.13364 0.17681,0.0221 0.35636,0 0.53454,0 0.17818,0 0.35636,0 0.53454,0 0.22272,0 0.45886,0.0761 0.66817,0 0.30188,-0.10978 0.54484,-0.34181 0.80181,-0.53454 0.40357,-0.30268 0.97907,-1.32996 1.06908,-1.46998 0.5625,-0.875 0.30071,-0.45946 0.66817,-1.46999 0.082,-0.22544 0.22023,-0.43295 0.26727,-0.66817 0.0437,-0.2184 -0.0171,-0.4461 0,-0.66817 0.0276,-0.35808 0.0979,-0.71173 0.13364,-1.06908 0.0157,-0.15695 0.008,-1.02135 0,-1.06908 -0.0555,-0.3332 -0.45132,-0.50553 -0.66818,-0.66817 -0.17818,-0.13364 -0.35636,-0.26727 -0.53453,-0.40091 -0.17819,-0.13363 -0.32895,-0.31524 -0.53454,-0.4009 -2.22586,-0.92744 -0.32808,-0.0389 -1.46999,-0.26727 -0.0977,-0.0195 -0.17277,-0.10214 -0.26727,-0.13364 -0.0663,-0.0221 -0.38952,-0.0114 -0.4009,0 -0.27782,0.27783 -0.33275,0.5606 -0.40091,0.93545 -0.20585,1.1322 -0.10099,1.07523 -0.26726,2.40542 -0.008,0.41749 -0.20919,0.79616 -0.26727,1.20272 -0.0189,0.13229 0.0262,0.26986 0,0.4009 -0.52729,2.63644 -0.0508,0.15235 -0.40091,1.20271 -0.0581,0.17424 -0.0891,0.35636 -0.13363,0.53454 -0.0446,0.17818 -0.0938,0.35525 -0.13364,0.53454 -0.0493,0.22173 -0.0618,0.4527 -0.13363,0.66818 -0.063,0.18898 -0.19065,0.35065 -0.26727,0.53453 -0.14638,0.35132 -0.28055,0.70802 -0.40091,1.06908 -0.0282,0.0845 0.0399,0.18759 0,0.26727 -0.0282,0.0564 -0.0773,0.10546 -0.13363,0.13364 -0.0383,0.0191 -0.59679,0 -0.66818,0 -0.0445,0 -0.11954,0.0423 -0.13363,0 -0.0423,-0.12678 -0.0166,-0.2683 0,-0.40091 0.10912,-0.87298 0.13028,-0.70252 0.80181,-1.46998 0.56521,-0.64595 1.3405,-1.52522 2.00452,-2.13816 0.30177,-0.27856 0.59209,-0.57648 0.93544,-0.8018 1.08578,-0.71254 2.17928,-1.42373 3.34087,-2.00453 0.36733,-0.18366 0.80295,-0.1732 1.20271,-0.26727 0.87158,-0.20507 1.13683,-0.33415 2.00453,-0.4009 0.26648,-0.0205 0.53454,0 0.8018,0 0.26728,0 0.53454,0 0.80181,0 0.0446,0 0.10214,0.0315 0.13364,0 0.0315,-0.0315 0.0398,-0.11371 0,-0.13364 -0.16428,-0.0821 -0.36671,-0.059 -0.53454,-0.13363 -0.23735,-0.10549 -0.43172,-0.29342 -0.66817,-0.4009 -0.25339,-0.11518 -1.51634,-0.483 -1.73726,-0.53454 -1.02103,-0.23825 -2.03796,-0.50466 -3.07359,-0.66818 -0.66147,-0.10444 -1.33563,-0.10178 -2.00453,-0.13363 -0.26696,-0.0127 -0.53454,0 -0.80181,0 -0.0891,0 -0.17818,0 -0.26727,0 -0.0445,0 -0.10213,-0.0315 -0.13363,0 -0.14043,0.14043 -0.24839,0.70741 -0.26727,0.80181 -0.10628,0.53138 -0.16099,1.07222 -0.26727,1.60361 -0.53078,2.65393 -0.0595,-0.0811 -0.4009,2.13816 -0.0412,0.26781 -0.11433,0.53154 -0.13364,0.80181 -0.0254,0.35545 0.0296,0.71395 0,1.06908 -0.0691,0.82859 -0.15129,0.23958 -0.26727,0.93544 -0.0302,0.18102 0,0.71416 0,0.93544 0,0.0445 0.0141,0.0914 0,0.13364 -0.0315,0.0945 -0.0966,0.17479 -0.13363,0.26727 -0.20474,0.51185 -0.0111,0.2784 -0.26727,0.53454 -0.0446,0.0445 -0.0773,0.10546 -0.13364,0.13363 -0.0502,0.0251 -0.85519,0.005 -0.93544,0 -0.62414,-0.0367 -1.24949,-0.0646 -1.87089,-0.13363 -0.74729,-0.083 -0.30193,-0.14057 -0.93544,-0.26727 -0.005,-10e-4 -0.40025,5.3e-4 -0.4009,0 -0.0315,-0.0315 -0.0399,-0.11372 0,-0.13364 0.0797,-0.0398 0.18385,0.0313 0.26727,0 0.27979,-0.10492 0.51832,-0.30641 0.8018,-0.4009 0.25706,-0.0857 0.53895,-0.0679 0.80181,-0.13364 0.68792,-0.17198 1.01615,-0.4176 1.73725,-0.53454 4.05872,-0.65817 3.26978,-0.53454 6.81538,-0.53454 0.66817,0 1.33635,0 2.00452,0 0.1078,0 0.76324,0.0257 0.80181,0 0.0829,-0.0553 0.0784,-0.18439 0.13363,-0.26726 0.16472,-0.24708 0.23619,-0.0202 0.40091,-0.26727 0.0494,-0.0741 -0.0147,-0.1794 0,-0.26727 0.0302,-0.18117 0.20598,-0.36573 0.13363,-0.53454 -0.0877,-0.20472 -0.34922,-0.27736 -0.53454,-0.40091 -0.34966,-0.2331 -0.69682,-0.47318 -1.06908,-0.66817 -0.56497,-0.29594 -1.19208,-0.47081 -1.73725,-0.80181 -0.70826,-0.43002 -1.26341,-1.09943 -2.00452,-1.46998 -0.706,-0.353 -1.52911,-0.40081 -2.27179,-0.66818 -1.48654,-0.53515 -2.93532,-1.17008 -4.40995,-1.73725 -0.26295,-0.10113 -0.53454,-0.17818 -0.80181,-0.26727 -0.13363,-0.0445 -0.27491,-0.0706 -0.4009,-0.13363 -0.0398,-0.0199 0.0891,0 0.13363,0 0.0891,0 0.17819,0 0.26727,0 0.4763,0 0.39214,-0.0741 0.80181,0.26727 0.65663,0.54719 0.19532,0.22615 0.66818,0.93544 0.24709,0.37064 0.56093,0.69438 0.8018,1.06908 0.16159,0.25136 0.26727,0.53454 0.40091,0.80181 0.35636,0.57908 0.69191,1.1715 1.06908,1.73725 0.0699,0.10483 0.21092,0.15458 0.26727,0.26727 0.24128,0.48257 0.0711,0.56899 0.13363,1.06908 0.0228,0.18224 0.11536,0.35178 0.13364,0.53454 0.0443,0.44324 0,0.89089 0,1.33634 0,0.17818 0,0.35636 0,0.53454 0,0.13364 0.0189,0.26861 0,0.40091 -0.026,0.18182 -0.0654,0.36401 -0.13364,0.53454 -0.18538,0.46346 -0.0563,-0.0773 -0.26727,0.13363 -0.0315,0.0315 -0.0398,0.11372 0,0.13364 0.0797,0.0398 0.17818,0 0.26727,0 0.31182,0 0.62363,0 0.93544,0 0.93545,0 1.87089,0 2.80633,0 0.60835,0 0.008,-0.063 0.40091,0.13363 0.0797,0.0398 0.20427,-0.063 0.26727,0 0.0315,0.0315 -0.0315,0.10214 0,0.13363 0.0197,0.0197 0.4009,-0.0157 0.4009,0 0,0.0445 -0.0891,0 -0.13363,0"
       id="path9"
       inkscape:connector-curvature="0" />
    <text
       xml:space="preserve"
       style="font-style:normal;font-weight:normal;font-size:1.76388907px;line-height:1.25;font-family:sans-serif;letter-spacing:0px;word-spacing:0px;fill:#000000;fill-opacity:1;stroke:none;stroke-width:0.26458332"
       x="137.87567"
       y="156.88985"
       id="text13"><tspan
         sodipodi:role="line"
         id="tspan11"
         x="137.87567"
         y="156.88985"
         style="stroke-width:0.26458332">garbuglio words fixity pdf</tspan></text>
    <text
       xml:space="preserve"
       style="font-style:normal;font-weight:normal;font-size:1.76388907px;line-height:1.25;font-family:sans-serif;letter-spacing:0px;word-spacing:0px;fill:#000000;fill-opacity:1;stroke:none;stroke-width:0.26458332"
       x="118.93494"
       y="162.96432"
       id="text17"><tspan
         sodipodi:role="line"
         id="tspan15"
         x="118.93494"
         y="162.96432"
         style="stroke-width:0.26458332">leggi time gazzetta</tspan></text>
    <text
       xml:space="preserve"
       style="font-style:normal;font-weight:normal;font-size:1.76388907px;line-height:1.25;font-family:sans-serif;letter-spacing:0px;word-spacing:0px;fill:#000000;fill-opacity:1;stroke:none;stroke-width:0.26458332"
       x="129.22481"
       y="166.7061"
       id="text21"><tspan
         sodipodi:role="line"
         id="tspan19"
         x="129.22481"
         y="166.7061"
         style="stroke-width:0.26458332">promulgazione ano della legge </tspan><tspan
         sodipodi:role="line"
         x="129.22481"
         y="168.91096"
         style="stroke-width:0.26458332"
         id="tspan23">presidente </tspan></text>
    <text
       xml:space="preserve"
       style="font-style:normal;font-weight:normal;font-size:1.76388907px;line-height:1.25;font-family:sans-serif;letter-spacing:0px;word-spacing:0px;fill:#000000;fill-opacity:1;stroke:none;stroke-width:0.26458332"
       x="81.918106"
       y="126.48204"
       id="text27"><tspan
         sodipodi:role="line"
         id="tspan25"
         x="81.918106"
         y="126.48204"
         style="stroke-width:0.26458332">stato = politici</tspan></text>
    <path
       style="fill:none;stroke:#000000;stroke-width:0.26458332px;stroke-linecap:butt;stroke-linejoin:miter;stroke-opacity:1"
       d="m 101.56244,178.73893 c 0.0321,0.40741 -0.10558,0.9536 0.13364,1.33635 0.39414,0.63062 0.88953,0.99837 1.46998,1.46999 2.60475,2.11636 2.21851,1.54195 7.48355,3.07359 0.34217,0.0996 0.71467,0.0373 1.06907,0 0.4953,-0.0521 0.99398,-0.1208 1.46999,-0.26726 0.12042,-0.0371 0.22742,-0.14775 0.26727,-0.26728 0.0563,-0.16903 0,-0.35636 0,-0.53453 0,-0.17818 0,-0.35636 0,-0.53454 0,-0.0445 0.0199,-0.0938 0,-0.13364 -0.0718,-0.14365 -0.19545,-0.25725 -0.26727,-0.4009 -0.063,-0.12599 -0.0706,-0.27491 -0.13364,-0.40091 -0.0718,-0.14365 -0.17818,-0.26727 -0.26727,-0.4009 -0.0891,-0.13363 -0.16445,-0.27752 -0.26727,-0.40091 -0.35176,-0.42211 -1.10795,-0.97992 -1.46998,-1.20271 -0.2043,-0.12572 -0.44979,-0.168 -0.66817,-0.26727 -0.27204,-0.12365 -0.51833,-0.30641 -0.80181,-0.4009 -0.6206,-0.20687 -1.55111,-0.13364 -2.13816,-0.13364 -0.31181,0 -0.62363,0 -0.93544,0 -0.0891,0 -0.18084,-0.0216 -0.26727,0 -0.32843,0.0821 -0.61228,0.47865 -0.80181,0.66818 -0.22272,0.22272 -0.42902,0.46319 -0.66817,0.66817 -0.16911,0.14495 -0.38257,0.23808 -0.53454,0.40091 -0.99419,1.06519 -1.56911,1.59477 -1.73725,2.93996 -0.0166,0.1326 0,0.26727 0,0.40091 0,0.17817 -0.0512,0.36387 0,0.53453 0.1114,0.37137 0.33542,0.81952 0.66817,1.06908 0.4058,0.30435 0.98825,0.26727 1.46998,0.26727 0.44545,0 0.8909,0 1.33635,0 0.98053,0 1.62236,0.0239 2.6727,-0.13363 0.57608,-0.0864 1.84845,-0.60939 2.27178,-0.80181 0.54407,-0.2473 1.0763,-0.52057 1.60362,-0.80181 0.14172,-0.0756 0.28734,-0.1537 0.40091,-0.26727 0.0127,-0.0127 0.50162,-0.60433 0.53454,-0.80181 0.0293,-0.17575 0,-0.35636 0,-0.53454 0,-0.31181 0,-0.62363 0,-0.93544 0,-0.0891 0.0147,-0.17939 0,-0.26727 -0.11686,-0.7011 -0.11065,-0.51155 -0.66818,-1.06908 -0.17818,-0.17818 -0.33295,-0.38335 -0.53454,-0.53454 -0.51395,-0.38546 -1.0407,-0.75947 -1.60361,-1.06907 -1.06267,-0.58447 -1.0979,-0.31444 -2.2718,-0.53455 -0.31873,-0.0598 -0.61492,-0.21795 -0.93544,-0.26726 -0.26416,-0.0406 -0.53484,-0.0127 -0.80181,0 -0.6689,0.0318 -1.34227,0.0343 -2.00452,0.13363 -0.73708,0.11056 -1.12454,0.68678 -1.60362,1.20271 -0.27945,0.30095 -0.58132,0.58897 -0.8018,0.93545 -0.31642,0.49723 -0.0555,0.4109 -0.13364,0.8018 -0.0276,0.13813 -0.11048,0.26196 -0.13363,0.40091 -0.022,0.13182 0,0.26727 0,0.4009 0,0.17818 0,0.35636 0,0.53454 0,0.13364 -0.0496,0.27683 0,0.40091 0.13337,0.33344 0.34976,0.62749 0.53454,0.93544 0.0826,0.13772 0.14185,0.30057 0.26726,0.40091 0.11,0.088 0.2837,0.0555 0.40091,0.13363 0.15725,0.10483 0.24366,0.29607 0.4009,0.4009 0.1791,0.1194 0.96788,0.24479 1.06908,0.26727 0.17929,0.0399 0.35229,0.11086 0.53454,0.13364 0.17681,0.0221 0.35636,0 0.53454,0 0.17818,0 0.35636,0 0.53454,0 0.22272,0 0.45886,0.0761 0.66817,0 0.30188,-0.10978 0.54484,-0.34181 0.80181,-0.53454 0.40357,-0.30268 0.97907,-1.32996 1.06908,-1.46998 0.5625,-0.875 0.30071,-0.45946 0.66817,-1.46999 0.082,-0.22544 0.22023,-0.43295 0.26727,-0.66817 0.0437,-0.2184 -0.0171,-0.4461 0,-0.66817 0.0276,-0.35808 0.0979,-0.71173 0.13364,-1.06908 0.0157,-0.15695 0.008,-1.02135 0,-1.06908 -0.0555,-0.3332 -0.45132,-0.50553 -0.66818,-0.66817 -0.17818,-0.13364 -0.35636,-0.26727 -0.53453,-0.40091 -0.17819,-0.13363 -0.32895,-0.31524 -0.53454,-0.4009 -2.22586,-0.92744 -0.32808,-0.0389 -1.46999,-0.26727 -0.0977,-0.0195 -0.17277,-0.10214 -0.26727,-0.13364 -0.0663,-0.0221 -0.38952,-0.0114 -0.4009,0 -0.27782,0.27783 -0.33275,0.5606 -0.40091,0.93545 -0.20585,1.1322 -0.10099,1.07523 -0.26726,2.40542 -0.008,0.41749 -0.20919,0.79616 -0.26727,1.20272 -0.0189,0.13229 0.0262,0.26986 0,0.4009 -0.52729,2.63644 -0.0508,0.15235 -0.40091,1.20271 -0.0581,0.17424 -0.0891,0.35636 -0.13363,0.53454 -0.0446,0.17818 -0.0938,0.35525 -0.13364,0.53454 -0.0493,0.22173 -0.0618,0.4527 -0.13363,0.66818 -0.063,0.18898 -0.19065,0.35065 -0.26727,0.53453 -0.14638,0.35132 -0.28055,0.70802 -0.40091,1.06908 -0.0282,0.0845 0.0399,0.18759 0,0.26727 -0.0282,0.0564 -0.0773,0.10546 -0.13363,0.13364 -0.0383,0.0191 -0.59679,0 -0.66818,0 -0.0445,0 -0.11954,0.0423 -0.13363,0 -0.0423,-0.12678 -0.0166,-0.2683 0,-0.40091 0.10912,-0.87298 0.13028,-0.70252 0.80181,-1.46998 0.56521,-0.64595 1.3405,-1.52522 2.00452,-2.13816 0.30177,-0.27856 0.59209,-0.57648 0.93544,-0.8018 1.08578,-0.71254 2.17928,-1.42373 3.34087,-2.00453 0.36733,-0.18366 0.80295,-0.1732 1.20271,-0.26727 0.87158,-0.20507 1.13683,-0.33415 2.00453,-0.4009 0.26648,-0.0205 0.53454,0 0.8018,0 0.26728,0 0.53454,0 0.80181,0 0.0446,0 0.10214,0.0315 0.13364,0 0.0315,-0.0315 0.0398,-0.11371 0,-0.13364 -0.16428,-0.0821 -0.36671,-0.059 -0.53454,-0.13363 -0.23735,-0.10549 -0.43172,-0.29342 -0.66817,-0.4009 -0.25339,-0.11518 -1.51634,-0.483 -1.73726,-0.53454 -1.02103,-0.23825 -2.03796,-0.50466 -3.07359,-0.66818 -0.66147,-0.10444 -1.33563,-0.10178 -2.00453,-0.13363 -0.26696,-0.0127 -0.53454,0 -0.80181,0 -0.0891,0 -0.17818,0 -0.26727,0 -0.0445,0 -0.10213,-0.0315 -0.13363,0 -0.14043,0.14043 -0.24839,0.70741 -0.26727,0.80181 -0.10628,0.53138 -0.16099,1.07222 -0.26727,1.60361 -0.53078,2.65393 -0.0595,-0.0811 -0.4009,2.13816 -0.0412,0.26781 -0.11433,0.53154 -0.13364,0.80181 -0.0254,0.35545 0.0296,0.71395 0,1.06908 -0.0691,0.82859 -0.15129,0.23958 -0.26727,0.93544 -0.0302,0.18102 0,0.71416 0,0.93544 0,0.0445 0.0141,0.0914 0,0.13364 -0.0315,0.0945 -0.0966,0.17479 -0.13363,0.26727 -0.20474,0.51185 -0.0111,0.2784 -0.26727,0.53454 -0.0446,0.0445 -0.0773,0.10546 -0.13364,0.13363 -0.0502,0.0251 -0.85519,0.005 -0.93544,0 -0.62414,-0.0367 -1.24949,-0.0646 -1.87089,-0.13363 -0.74729,-0.083 -0.30193,-0.14057 -0.935445,-0.26727 -0.005,-0.001 -0.40025,5.3e-4 -0.4009,0 -0.0315,-0.0315 -0.0399,-0.11372 0,-0.13364 0.0797,-0.0398 0.18385,0.0313 0.26727,0 0.27979,-0.10492 0.518325,-0.30641 0.801805,-0.4009 0.25706,-0.0857 0.53895,-0.0679 0.80181,-0.13364 0.68792,-0.17198 1.01615,-0.4176 1.73725,-0.53454 4.05872,-0.65817 3.26978,-0.53454 6.81538,-0.53454 0.66817,0 1.33635,0 2.00452,0 0.1078,0 0.76324,0.0257 0.80181,0 0.0829,-0.0553 0.0784,-0.18439 0.13363,-0.26726 0.16472,-0.24708 0.23619,-0.0202 0.40091,-0.26727 0.0494,-0.0741 -0.0147,-0.1794 0,-0.26727 0.0302,-0.18117 0.20598,-0.36573 0.13363,-0.53454 -0.0877,-0.20472 -0.34922,-0.27736 -0.53454,-0.40091 -0.34966,-0.2331 -0.69682,-0.47318 -1.06908,-0.66817 -0.56497,-0.29594 -1.19208,-0.47081 -1.73725,-0.80181 -0.70826,-0.43002 -1.26341,-1.09943 -2.00452,-1.46998 -0.706,-0.353 -1.52911,-0.40081 -2.27179,-0.66818 -1.48654,-0.53515 -2.93532,-1.17008 -4.40995,-1.73725 -0.26295,-0.10113 -0.53454,-0.17818 -0.80181,-0.26727 -0.13363,-0.0445 -0.27491,-0.0706 -0.4009,-0.13363 -0.0398,-0.0199 0.0891,0 0.13363,0 0.0891,0 0.17819,0 0.26727,0 0.4763,0 0.39214,-0.0741 0.80181,0.26727 0.65663,0.54719 0.19532,0.22615 0.66818,0.93544 0.24709,0.37064 0.56093,0.69438 0.8018,1.06908 0.16159,0.25136 0.26727,0.53454 0.40091,0.80181 0.35636,0.57908 0.69191,1.1715 1.06908,1.73725 0.0699,0.10483 0.21092,0.15458 0.26727,0.26727 0.24128,0.48257 0.0711,0.56899 0.13363,1.06908 0.0228,0.18224 0.11536,0.35178 0.13364,0.53454 0.0443,0.44324 0,0.89089 0,1.33634 0,0.17818 0,0.35636 0,0.53454 0,0.13364 0.0189,0.26861 0,0.40091 -0.026,0.18182 -0.0654,0.36401 -0.13364,0.53454 -0.18538,0.46346 -0.0563,-0.0773 -0.26727,0.13363 -0.0315,0.0315 -0.0398,0.11372 0,0.13364 0.0797,0.0398 0.17818,0 0.26727,0 0.31182,0 0.62363,0 0.93544,0 0.93545,0 1.87089,0 2.80633,0 0.60835,0 0.008,-0.063 0.40091,0.13363 0.0797,0.0398 0.20427,-0.063 0.26727,0 0.0315,0.0315 -0.0315,0.10214 0,0.13363 0.0197,0.0197 0.4009,-0.0157 0.4009,0 0,0.0445 -0.0891,0 -0.13363,0"
       id="path9-8"
       inkscape:connector-curvature="0" />
    <text
       xml:space="preserve"
       style="font-style:normal;font-weight:normal;font-size:1.76388907px;line-height:1.25;font-family:sans-serif;letter-spacing:0px;word-spacing:0px;fill:#000000;fill-opacity:1;stroke:none;stroke-width:0.26458332"
       x="117.19769"
       y="180.06958"
       id="text46"><tspan
         sodipodi:role="line"
         id="tspan44"
         x="117.19769"
         y="180.06958"
         style="stroke-width:0.26458332">spese garbuglio doppio ministero-missioni + solo secondo livello  no dettaglio</tspan></text>
    <text
       xml:space="preserve"
       style="font-style:normal;font-weight:normal;font-size:1.76388907px;line-height:1.25;font-family:sans-serif;letter-spacing:0px;word-spacing:0px;fill:#000000;fill-opacity:1;stroke:none;stroke-width:0.26458332"
       x="123.26748"
       y="184.12686"
       id="text50"><tspan
         sodipodi:role="line"
         id="tspan48"
         x="123.26748"
         y="184.12686"
         style="stroke-width:0.26458332">pdf-muro e excel perche tanto non si vede in fondo</tspan><tspan
         sodipodi:role="line"
         x="123.26748"
         y="186.33173"
         style="stroke-width:0.26458332"
         id="tspan52" /></text>
    <text
       xml:space="preserve"
       style="font-style:normal;font-weight:normal;font-size:1.76388907px;line-height:1.25;font-family:sans-serif;letter-spacing:0px;word-spacing:0px;fill:#000000;fill-opacity:1;stroke:none;stroke-width:0.26458332"
       x="129.02437"
       y="170.98241"
       id="text56"><tspan
         sodipodi:role="line"
         id="tspan54"
         x="129.02437"
         y="170.98241"
         style="stroke-width:0.26458332">merda pdf  + illeggibile doppia colonna + foto col cell neanche export</tspan></text>
    <text
       xml:space="preserve"
       style="font-style:normal;font-weight:normal;font-size:1.76388907px;line-height:1.25;font-family:sans-serif;letter-spacing:0px;word-spacing:0px;fill:#000000;fill-opacity:1;stroke:none;stroke-width:0.26458332"
       x="116.79462"
       y="198.91518"
       id="text60"><tspan
         sodipodi:role="line"
         id="tspan58"
         x="116.79462"
         y="198.91518"
         style="stroke-width:0.26458332">entrate=tasse</tspan></text>
    <text
       xml:space="preserve"
       style="font-style:normal;font-weight:normal;font-size:1.76388907px;line-height:1.25;font-family:sans-serif;letter-spacing:0px;word-spacing:0px;fill:#000000;fill-opacity:1;stroke:none;stroke-width:0.26458332"
       x="88.824409"
       y="179.07143"
       id="text64"><tspan
         sodipodi:role="line"
         id="tspan62"
         x="88.824409"
         y="179.07143"
         style="stroke-width:0.26458332">3%</tspan></text>
    <text
       xml:space="preserve"
       style="font-style:normal;font-weight:normal;font-size:1.76388907px;line-height:1.25;font-family:sans-serif;letter-spacing:0px;word-spacing:0px;fill:#000000;fill-opacity:1;stroke:none;stroke-width:0.26458332"
       x="123.88169"
       y="203.07292"
       id="text68"><tspan
         sodipodi:role="line"
         x="123.88169"
         y="203.07292"
         style="stroke-width:0.26458332"
         id="tspan70">iva</tspan></text>
    <text
       xml:space="preserve"
       style="font-style:normal;font-weight:normal;font-size:1.76388907px;line-height:1.25;font-family:sans-serif;letter-spacing:0px;word-spacing:0px;fill:#000000;fill-opacity:1;stroke:none;stroke-width:0.26458332"
       x="118.11755"
       y="135.79315"
       id="text76"><tspan
         sodipodi:role="line"
         x="118.11755"
         y="135.79315"
         style="stroke-width:0.26458332"
         id="tspan78">POLITICO</tspan></text>
    <path
       style="fill:none;stroke:#000000;stroke-width:0.26458332px;stroke-linecap:butt;stroke-linejoin:miter;stroke-opacity:1"
       d="M 117.1117,135.81344 C 93.628087,128.82696 90.735696,148.96795 97.234374,158.47173"
       id="path82"
       inkscape:connector-curvature="0"
       sodipodi:nodetypes="cc" />
    <path
       style="fill:none;stroke:#000000;stroke-width:0.26499999;stroke-linecap:butt;stroke-linejoin:miter;stroke-miterlimit:4;stroke-dasharray:none;stroke-opacity:1;marker-end:url(#Arrow1Lend)"
       d="m 117.1117,135.81344 c -12.40113,3.18177 -32.436412,16.28042 -19.49935,43.35248"
       id="path84"
       inkscape:connector-curvature="0"
       sodipodi:nodetypes="cc" />
    <path
       style="fill:none;stroke:#000000;stroke-width:0.26458332px;stroke-linecap:butt;stroke-linejoin:miter;stroke-opacity:1"
       d="m 194.28141,179.67258 c 0.0321,0.40741 -0.10558,0.9536 0.13364,1.33635 0.39414,0.63062 0.88953,0.99837 1.46998,1.46999 2.60475,2.11636 2.21851,1.54195 7.48355,3.07359 0.34217,0.0996 0.71467,0.0373 1.06907,0 0.4953,-0.0521 0.99398,-0.1208 1.46999,-0.26726 0.12042,-0.0371 0.22742,-0.14775 0.26727,-0.26728 0.0563,-0.16903 0,-0.35636 0,-0.53453 0,-0.17818 0,-0.35636 0,-0.53454 0,-0.0445 0.0199,-0.0938 0,-0.13364 -0.0718,-0.14365 -0.19545,-0.25725 -0.26727,-0.4009 -0.063,-0.12599 -0.0706,-0.27491 -0.13364,-0.40091 -0.0718,-0.14365 -0.17818,-0.26727 -0.26727,-0.4009 -0.0891,-0.13363 -0.16445,-0.27752 -0.26727,-0.40091 -0.35176,-0.42211 -1.10795,-0.97992 -1.46998,-1.20271 -0.2043,-0.12572 -0.44979,-0.16801 -0.66817,-0.26727 -0.27204,-0.12365 -0.51833,-0.30641 -0.80181,-0.4009 -0.6206,-0.20687 -1.55111,-0.13364 -2.13816,-0.13364 -0.31181,0 -0.62363,0 -0.93544,0 -0.0891,0 -0.18084,-0.0216 -0.26727,0 -0.32843,0.0821 -0.61228,0.47865 -0.80181,0.66818 -0.22272,0.22272 -0.42902,0.46319 -0.66817,0.66817 -0.16911,0.14495 -0.38257,0.23808 -0.53454,0.40091 -0.99419,1.06519 -1.56911,1.59477 -1.73725,2.93996 -0.0166,0.1326 0,0.26727 0,0.40091 0,0.17817 -0.0512,0.36387 0,0.53453 0.1114,0.37137 0.33542,0.81952 0.66817,1.06908 0.4058,0.30435 0.98825,0.26727 1.46998,0.26727 0.44545,0 0.8909,0 1.33635,0 0.98053,0 1.62236,0.0239 2.6727,-0.13363 0.57608,-0.0864 1.84845,-0.60939 2.27178,-0.80181 0.54407,-0.2473 1.0763,-0.52057 1.60362,-0.80181 0.14172,-0.0756 0.28734,-0.1537 0.40091,-0.26727 0.0127,-0.0127 0.50162,-0.60433 0.53454,-0.80181 0.0293,-0.17575 0,-0.35636 0,-0.53454 0,-0.31181 0,-0.62363 0,-0.93544 0,-0.0891 0.0147,-0.17939 0,-0.26727 -0.11686,-0.7011 -0.11065,-0.51155 -0.66818,-1.06908 -0.17818,-0.17819 -0.33295,-0.38335 -0.53454,-0.53454 -0.51395,-0.38546 -1.0407,-0.75947 -1.60361,-1.06908 -1.06267,-0.58446 -1.0979,-0.31443 -2.2718,-0.53454 -0.31873,-0.0598 -0.61492,-0.21795 -0.93544,-0.26726 -0.26416,-0.0406 -0.53484,-0.0127 -0.80181,0 -0.6689,0.0318 -1.34227,0.0343 -2.00452,0.13363 -0.73708,0.11056 -1.12454,0.68678 -1.60362,1.20271 -0.27945,0.30095 -0.58132,0.58897 -0.8018,0.93544 -0.31642,0.49724 -0.0555,0.41091 -0.13364,0.80181 -0.0276,0.13813 -0.11048,0.26196 -0.13363,0.40091 -0.022,0.13182 0,0.26727 0,0.4009 0,0.17818 0,0.35636 0,0.53454 0,0.13364 -0.0496,0.27683 0,0.40091 0.13337,0.33344 0.34976,0.62749 0.53454,0.93544 0.0826,0.13772 0.14185,0.30057 0.26726,0.40091 0.11,0.088 0.2837,0.0555 0.40091,0.13363 0.15725,0.10483 0.24366,0.29607 0.4009,0.4009 0.1791,0.1194 0.96788,0.24479 1.06908,0.26727 0.17929,0.0399 0.35229,0.11086 0.53454,0.13364 0.17681,0.0221 0.35636,0 0.53454,0 0.17818,0 0.35636,0 0.53454,0 0.22272,0 0.45886,0.0761 0.66817,0 0.30188,-0.10978 0.54484,-0.34181 0.80181,-0.53454 0.40357,-0.30268 0.97907,-1.32996 1.06908,-1.46998 0.5625,-0.875 0.30071,-0.45946 0.66817,-1.46999 0.082,-0.22544 0.22023,-0.43295 0.26727,-0.66817 0.0437,-0.2184 -0.0171,-0.4461 0,-0.66818 0.0276,-0.35807 0.0979,-0.71172 0.13364,-1.06907 0.0157,-0.15695 0.008,-1.02135 0,-1.06908 -0.0555,-0.3332 -0.45132,-0.50553 -0.66818,-0.66817 -0.17818,-0.13364 -0.35636,-0.26727 -0.53453,-0.40091 -0.17819,-0.13363 -0.32895,-0.31524 -0.53454,-0.4009 -2.22586,-0.92744 -0.32808,-0.0389 -1.46999,-0.26727 -0.0977,-0.0195 -0.17277,-0.10214 -0.26727,-0.13364 -0.0663,-0.0221 -0.38952,-0.0114 -0.4009,0 -0.27782,0.27783 -0.33275,0.5606 -0.40091,0.93545 -0.20585,1.1322 -0.10099,1.07523 -0.26726,2.40542 -0.008,0.41749 -0.20919,0.79616 -0.26727,1.20272 -0.0189,0.13229 0.0262,0.26985 0,0.4009 -0.52729,2.63644 -0.0508,0.15235 -0.40091,1.20271 -0.0581,0.17424 -0.0891,0.35636 -0.13363,0.53454 -0.0446,0.17818 -0.0938,0.35525 -0.13364,0.53454 -0.0493,0.22173 -0.0618,0.4527 -0.13363,0.66818 -0.063,0.18898 -0.19065,0.35065 -0.26727,0.53453 -0.14638,0.35132 -0.28055,0.70802 -0.40091,1.06908 -0.0282,0.0845 0.0399,0.18759 0,0.26727 -0.0282,0.0564 -0.0773,0.10546 -0.13363,0.13364 -0.0383,0.0191 -0.59679,0 -0.66818,0 -0.0445,0 -0.11954,0.0423 -0.13363,0 -0.0423,-0.12678 -0.0166,-0.2683 0,-0.40091 0.10912,-0.87298 0.13028,-0.70252 0.80181,-1.46998 0.56521,-0.64595 1.3405,-1.52522 2.00452,-2.13816 0.30177,-0.27856 0.59209,-0.57648 0.93544,-0.8018 1.08578,-0.71254 2.17928,-1.42373 3.34087,-2.00453 0.36733,-0.18366 0.80295,-0.1732 1.20271,-0.26727 0.87158,-0.20507 1.13683,-0.33415 2.00453,-0.4009 0.26648,-0.0205 0.53454,0 0.8018,0 0.26728,0 0.53454,0 0.80181,0 0.0446,0 0.10214,0.0315 0.13364,0 0.0315,-0.0315 0.0398,-0.11371 0,-0.13364 -0.16428,-0.0821 -0.36671,-0.059 -0.53454,-0.13363 -0.23735,-0.10549 -0.43172,-0.29342 -0.66817,-0.4009 -0.25339,-0.11518 -1.51634,-0.483 -1.73726,-0.53454 -1.02103,-0.23825 -2.03796,-0.50466 -3.07359,-0.66818 -0.66147,-0.10444 -1.33563,-0.10178 -2.00453,-0.13363 -0.26696,-0.0127 -0.53454,0 -0.80181,0 -0.0891,0 -0.17818,0 -0.26727,0 -0.0445,0 -0.10213,-0.0315 -0.13363,0 -0.14043,0.14043 -0.24839,0.70741 -0.26727,0.80181 -0.10628,0.53138 -0.16099,1.07222 -0.26727,1.60361 -0.53078,2.65393 -0.0595,-0.0811 -0.4009,2.13816 -0.0412,0.26781 -0.11433,0.53154 -0.13364,0.80181 -0.0254,0.35545 0.0296,0.71395 0,1.06908 -0.0691,0.82859 -0.15129,0.23958 -0.26727,0.93544 -0.0302,0.18102 0,0.71416 0,0.93544 0,0.0445 0.0141,0.0914 0,0.13364 -0.0315,0.0945 -0.0966,0.17479 -0.13363,0.26727 -0.20474,0.51185 -0.0111,0.2784 -0.26727,0.53454 -0.0446,0.0445 -0.0773,0.10546 -0.13364,0.13363 -0.0502,0.0251 -0.85519,0.005 -0.93544,0 -0.62414,-0.0367 -1.24949,-0.0646 -1.87089,-0.13363 -0.74729,-0.083 -0.30193,-0.14057 -0.93544,-0.26727 -0.005,-0.001 -0.40025,5.2e-4 -0.4009,0 -0.0315,-0.0315 -0.0399,-0.11372 0,-0.13364 0.0797,-0.0398 0.18385,0.0313 0.26727,0 0.27979,-0.10492 0.51832,-0.30641 0.8018,-0.4009 0.25706,-0.0857 0.53895,-0.0679 0.80181,-0.13364 0.68792,-0.17198 1.01615,-0.4176 1.73725,-0.53454 4.05872,-0.65817 3.26978,-0.53454 6.81538,-0.53454 0.66817,0 1.33635,0 2.00452,0 0.1078,0 0.76324,0.0257 0.80181,0 0.0829,-0.0553 0.0784,-0.18439 0.13363,-0.26726 0.16472,-0.24708 0.23619,-0.0202 0.40091,-0.26727 0.0494,-0.0741 -0.0147,-0.1794 0,-0.26727 0.0302,-0.18117 0.20598,-0.36573 0.13363,-0.53454 -0.0877,-0.20472 -0.34922,-0.27736 -0.53454,-0.40091 -0.34966,-0.2331 -0.69682,-0.47318 -1.06908,-0.66817 -0.56497,-0.29594 -1.19208,-0.47081 -1.73725,-0.80181 -0.70826,-0.43002 -1.26341,-1.09943 -2.00452,-1.46998 -0.706,-0.353 -1.52911,-0.40081 -2.27179,-0.66818 -1.48654,-0.53515 -2.93532,-1.17008 -4.40995,-1.73725 -0.26295,-0.10113 -0.53454,-0.17818 -0.80181,-0.26727 -0.13363,-0.0445 -0.27491,-0.0706 -0.4009,-0.13363 -0.0398,-0.0199 0.0891,0 0.13363,0 0.0891,0 0.17819,0 0.26727,0 0.4763,0 0.39214,-0.0741 0.80181,0.26727 0.65663,0.54719 0.19532,0.22615 0.66818,0.93544 0.24709,0.37064 0.56093,0.69438 0.8018,1.06908 0.16159,0.25135 0.26727,0.53454 0.40091,0.8018 0.35636,0.57909 0.69191,1.17151 1.06908,1.73726 0.0699,0.10483 0.21092,0.15458 0.26727,0.26727 0.24128,0.48257 0.0711,0.56898 0.13363,1.06908 0.0228,0.18224 0.11536,0.35178 0.13364,0.53454 0.0443,0.44324 0,0.89089 0,1.33634 0,0.17818 0,0.35636 0,0.53454 0,0.13364 0.0189,0.26861 0,0.40091 -0.026,0.18182 -0.0654,0.36401 -0.13364,0.53454 -0.18538,0.46346 -0.0563,-0.0773 -0.26727,0.13363 -0.0315,0.0315 -0.0398,0.11372 0,0.13364 0.0797,0.0398 0.17818,0 0.26727,0 0.31182,0 0.62363,0 0.93544,0 0.93545,0 1.87089,0 2.80633,0 0.60835,0 0.008,-0.063 0.40091,0.13363 0.0797,0.0398 0.20427,-0.063 0.26727,0 0.0315,0.0315 -0.0315,0.10214 0,0.13363 0.0197,0.0197 0.4009,-0.0157 0.4009,0 0,0.0445 -0.0891,0 -0.13363,0"
       id="path9-8-4"
       inkscape:connector-curvature="0" />
    <text
       xml:space="preserve"
       style="font-style:normal;font-weight:normal;font-size:1.76388907px;line-height:1.25;font-family:sans-serif;letter-spacing:0px;word-spacing:0px;fill:#000000;fill-opacity:1;stroke:none;stroke-width:0.26458332"
       x="193.90178"
       y="175.85863"
       id="text908"><tspan
         sodipodi:role="line"
         id="tspan906"
         x="193.90178"
         y="175.85863"
         style="stroke-width:0.26458332">amministrazione uffici</tspan></text>
    <text
       xml:space="preserve"
       style="font-style:normal;font-weight:normal;font-size:1.76388907px;line-height:1.25;font-family:sans-serif;letter-spacing:0px;word-spacing:0px;fill:#000000;fill-opacity:1;stroke:none;stroke-width:0.26458332"
       x="211.28868"
       y="180.77232"
       id="text912"><tspan
         sodipodi:role="line"
         id="tspan910"
         x="211.28868"
         y="180.77232"
         style="stroke-width:0.26458332">complessita= loro lavoro</tspan></text>
    <text
       xml:space="preserve"
       style="font-style:normal;font-weight:normal;font-size:1.76388907px;line-height:1.25;font-family:sans-serif;letter-spacing:0px;word-spacing:0px;fill:#000000;fill-opacity:1;stroke:none;stroke-width:0.26458332"
       x="214.1235"
       y="185.11905"
       id="text916"><tspan
         sodipodi:role="line"
         id="tspan914"
         x="214.1235"
         y="185.11905"
         style="stroke-width:0.26458332">lento no responsabilita ingranaggio della macchina regole</tspan></text>
    <text
       xml:space="preserve"
       style="font-style:normal;font-weight:normal;font-size:1.76388907px;line-height:1.25;font-family:sans-serif;letter-spacing:0px;word-spacing:0px;fill:#000000;fill-opacity:1;stroke:none;stroke-width:0.26458332"
       x="223.38393"
       y="190.97768"
       id="text920"><tspan
         sodipodi:role="line"
         id="tspan918"
         x="223.38393"
         y="190.97768"
         style="stroke-width:0.26458332">kafka impazzisce come tutti</tspan></text>
    <path
       style="fill:none;stroke:#000000;stroke-width:0.26458332px;stroke-linecap:butt;stroke-linejoin:miter;stroke-opacity:1"
       d="m 188.42501,201.71841 80.84904,-0.93544"
       id="path922"
       inkscape:connector-curvature="0" />
    <text
       xml:space="preserve"
       style="font-style:normal;font-weight:normal;font-size:1.76388907px;line-height:1.25;font-family:sans-serif;letter-spacing:0px;word-spacing:0px;fill:#000000;fill-opacity:1;stroke:none;stroke-width:0.26458332"
       x="190.83043"
       y="208.66742"
       id="text926"><tspan
         sodipodi:role="line"
         id="tspan924"
         x="190.83043"
         y="208.66742"
         style="stroke-width:0.26458332">99 no ammessa ignoranza leggi</tspan></text>
    <text
       xml:space="preserve"
       style="font-style:normal;font-weight:normal;font-size:1.76388907px;line-height:1.25;font-family:sans-serif;letter-spacing:0px;word-spacing:0px;fill:#000000;fill-opacity:1;stroke:none;stroke-width:0.26458332"
       x="207.17715"
       y="129.36087"
       id="text1137"><tspan
         sodipodi:role="line"
         id="tspan1135"
         x="207.17715"
         y="129.36087"
         style="stroke-width:0.26458332">datore lavoro</tspan></text>
    <path
       style="fill:none;stroke:#000000;stroke-width:0.34255943px;stroke-linecap:butt;stroke-linejoin:miter;stroke-opacity:1"
       d="m 135.71459,126.52369 -8.53487,8.69142"
       id="path1205"
       inkscape:connector-curvature="0" />
    <text
       xml:space="preserve"
       style="font-style:normal;font-weight:normal;font-size:1.76388907px;line-height:1.25;font-family:sans-serif;letter-spacing:0px;word-spacing:0px;fill:#000000;fill-opacity:1;stroke:none;stroke-width:0.26458332"
       x="176.96791"
       y="117.22901"
       id="text1209"><tspan
         sodipodi:role="line"
         id="tspan1207"
         x="176.96791"
         y="117.22901"
         style="stroke-width:0.26458332">voti</tspan></text>
    <text
       xml:space="preserve"
       style="font-style:normal;font-weight:normal;font-size:1.76388907px;line-height:1.25;font-family:sans-serif;letter-spacing:0px;word-spacing:0px;fill:#000000;fill-opacity:1;stroke:none;stroke-width:0.26458332"
       x="206.91551"
       y="134.93883"
       id="text1137-7"><tspan
         sodipodi:role="line"
         id="tspan1135-7"
         x="206.91551"
         y="134.93883"
         style="stroke-width:0.26458332">99</tspan></text>
  </g>
</svg>
